<svg width="39" height="39" viewBox="0 0 39 39" fill="none" xmlns="http://www.w3.org/2000/svg">
<path d="M19.4514 9.38672C19.1096 9.38672 18.7715 9.40419 18.4384 9.43837C18.1053 9.47255 17.7768 9.52319 17.454 9.58968C17.1311 9.65617 16.8139 9.73851 16.5031 9.83568L15.5909 10.1713L14.7223 10.5914L13.9027 11.091L13.1369 11.6648L12.4303 12.3079L11.7877 13.0152L11.2143 13.7815L10.715 14.6019L10.2953 15.471C10.1692 15.7682 10.057 16.073 9.95988 16.3841C9.86275 16.6952 9.78057 17.0128 9.71407 17.3359C9.64758 17.659 9.59702 17.9877 9.56278 18.3212C9.52854 18.6546 9.51135 18.9929 9.51135 19.335C9.51135 19.677 9.52879 20.0153 9.56278 20.3488C9.59658 20.6796 9.64708 21.0085 9.71407 21.3341C9.78057 21.6585 9.86275 21.9748 9.95988 22.286C10.057 22.5971 10.1691 22.9017 10.2953 23.1991L10.715 24.0682L11.2143 24.8884L11.7877 25.6549L12.4303 26.3622L13.1369 27.0052L13.9027 27.5791L14.7223 28.0787L15.5909 28.4988L16.5031 28.8344L17.454 29.0804C17.7794 29.1474 18.1079 29.198 18.4384 29.2318C18.775 29.2662 19.1131 29.2834 19.4514 29.2833C19.7932 29.2833 20.1313 29.2659 20.4643 29.2318C20.7947 29.198 21.1233 29.1474 21.4487 29.0804L22.3997 28.8344L23.3119 28.4988L24.1803 28.0787L25.0001 27.5791L25.7659 27.0052L26.4727 26.3622L27.1152 25.6549L27.6886 24.8884L28.1879 24.0682L28.6076 23.1991L28.943 22.286C29.0402 21.9748 29.1224 21.6572 29.1889 21.3341L29.3401 20.3487C29.3743 20.0152 29.3917 19.6769 29.3917 19.3348C29.3917 18.9928 29.3743 18.6545 29.3401 18.321C29.3063 17.9903 29.2558 17.6614 29.1889 17.3358C29.1224 17.0115 29.0402 16.6952 28.943 16.384L28.6076 15.4708L28.1879 14.6017L27.6886 13.7814L27.1152 13.0151L26.4727 12.3078L25.7659 11.6647L25.0001 11.0909L24.1803 10.5913L23.3119 10.1711L22.3997 9.83556L21.4487 9.58956L20.4643 9.43824C20.1277 9.40381 19.7897 9.38657 19.4514 9.3866V9.38672ZM19.4514 12.8205C19.6774 12.8205 19.9004 12.8317 20.1201 12.8539L20.7676 12.9521L21.3931 13.1118L21.992 13.3297L22.5614 13.6029L23.0969 13.9279L23.5975 14.3017L24.0589 14.7211L24.478 15.1829L24.8515 15.6839L25.1763 16.2211L25.449 16.7911C25.5309 16.9863 25.6036 17.1862 25.6669 17.3907C25.7301 17.5951 25.7833 17.8041 25.8263 18.0169C25.8692 18.2297 25.901 18.4463 25.9243 18.6662L25.9576 19.3356C25.9576 19.5618 25.9464 19.7851 25.9243 20.0051C25.9021 20.2252 25.8695 20.4417 25.8263 20.6544C25.7831 20.8671 25.7298 21.076 25.6669 21.2806L25.449 21.8802L25.1763 22.4503L24.8515 22.9873L24.478 23.4884L24.0589 23.9502L23.5975 24.3696L23.0969 24.7435L22.5614 25.0684L21.992 25.3416L21.3931 25.5595L20.7676 25.7192L20.1201 25.8173C19.8978 25.8396 19.6746 25.8507 19.4513 25.8507C19.2279 25.8507 19.0046 25.8396 18.7823 25.8173L18.1348 25.7192C17.9223 25.6761 17.7136 25.6227 17.5092 25.5595L16.9103 25.3416L16.3409 25.0684L15.8054 24.7435L15.3048 24.3696L14.8434 23.9502L14.4243 23.4884L14.0508 22.9873L13.726 22.4503L13.4533 21.8802L13.2354 21.2806L13.076 20.6544L12.978 20.0051C12.9557 19.7826 12.9446 19.5592 12.9447 19.3356C12.9446 19.112 12.9557 18.8886 12.978 18.6662C13.0001 18.4463 13.0328 18.2296 13.076 18.0169C13.1188 17.8057 13.172 17.5967 13.2355 17.3908L13.4535 16.7913L13.7262 16.2212L14.0509 15.684L14.4245 15.183L14.8435 14.7212L15.305 14.3018L15.8055 13.928L16.341 13.603L16.9104 13.3298C17.1064 13.2474 17.3063 13.1746 17.5095 13.1119L18.1351 12.9522C18.3476 12.9091 18.5641 12.8761 18.7826 12.854C19.0049 12.8317 19.2281 12.8206 19.4515 12.8206L19.4514 12.8205Z" fill="url(#paint0_radial_7_29)"/>
<path d="M29.7948 6.55676C29.7158 6.55678 29.637 6.56077 29.5584 6.56874C29.4799 6.57669 29.4018 6.5886 29.3244 6.60442C29.2471 6.62022 29.1706 6.63991 29.0952 6.66342C29.0198 6.68694 28.9456 6.71426 28.8729 6.74525C28.8002 6.77629 28.7291 6.81097 28.6599 6.84917C28.5906 6.88729 28.5233 6.92888 28.4582 6.97379C28.393 7.01874 28.3301 7.06696 28.2698 7.11825C28.2094 7.16948 28.1516 7.22373 28.0967 7.28079C28.0417 7.33788 27.9896 7.39771 27.9405 7.46005C27.8915 7.5224 27.8455 7.58718 27.8029 7.65415C27.7603 7.72108 27.721 7.79011 27.6852 7.86098C27.6494 7.93191 27.6171 8.00461 27.5885 8.07879C27.5599 8.15296 27.535 8.22853 27.5139 8.3052C27.4928 8.38188 27.4755 8.45957 27.4621 8.53798C27.4487 8.61637 27.4392 8.69539 27.4336 8.77475C27.4296 8.83096 27.4276 8.8873 27.4276 8.94365C27.4276 9.02327 27.4316 9.10283 27.4394 9.18204C27.4473 9.26122 27.4591 9.33995 27.4748 9.41794C27.4905 9.49593 27.51 9.57307 27.5333 9.64909C27.5567 9.72513 27.5838 9.79995 27.6145 9.87326C27.6453 9.94659 27.6796 10.0183 27.7175 10.0882C27.7553 10.1581 27.7966 10.226 27.8411 10.2917C27.8857 10.3573 27.9335 10.4207 27.9843 10.4815C28.0352 10.5424 28.089 10.6007 28.1456 10.6562C28.2022 10.7116 28.2616 10.7641 28.3234 10.8136C28.3853 10.8631 28.4495 10.9094 28.5159 10.9524C28.5824 10.9955 28.6509 11.0351 28.7213 11.0712C28.7916 11.1073 28.8636 11.1399 28.9372 11.1687C29.0107 11.1976 29.0857 11.2227 29.1617 11.244C29.2377 11.2652 29.3148 11.2826 29.3926 11.2961C29.4703 11.3097 29.5487 11.3193 29.6274 11.3249C29.6831 11.3289 29.739 11.3309 29.7949 11.3309C29.8738 11.3309 29.9527 11.327 30.0312 11.3191C30.1098 11.3111 30.1879 11.2992 30.2652 11.2834C30.3425 11.2676 30.4191 11.2479 30.4945 11.2244C30.5698 11.2009 30.644 11.1735 30.7167 11.1426C30.7894 11.1116 30.8605 11.0769 30.9298 11.0388C30.999 11.0006 31.0664 10.959 31.1315 10.914C31.1966 10.8691 31.2595 10.8209 31.3199 10.7697C31.3803 10.7184 31.438 10.6641 31.493 10.607C31.548 10.5499 31.6001 10.4901 31.6491 10.4278C31.6982 10.3654 31.7441 10.3006 31.7867 10.2337C31.8294 10.1667 31.8686 10.0976 31.9044 10.0267C31.9402 9.95577 31.9725 9.88308 32.0012 9.80889C32.0297 9.73472 32.0546 9.65916 32.0757 9.58248C32.0969 9.50581 32.1141 9.42812 32.1275 9.3497C32.141 9.27131 32.1505 9.19229 32.1561 9.11293C32.16 9.05672 32.162 9.00038 32.162 8.94403C32.162 8.86446 32.1581 8.78494 32.1502 8.70576C32.1423 8.62659 32.1305 8.54786 32.1148 8.46987C32.0992 8.39188 32.0796 8.31473 32.0563 8.23871C32.033 8.16267 32.0059 8.08786 31.9751 8.01455C31.9444 7.94121 31.91 7.86948 31.8722 7.79961C31.8343 7.72975 31.7931 7.66185 31.7485 7.59615C31.7039 7.53045 31.6561 7.46704 31.6052 7.40616C31.5544 7.34527 31.5006 7.28698 31.4441 7.23151C31.3874 7.17608 31.3281 7.12354 31.2662 7.07408C31.2044 7.02464 31.1401 6.97834 31.0737 6.93537C31.0073 6.89235 30.9388 6.85272 30.8684 6.81661C30.7981 6.78048 30.726 6.74792 30.6525 6.71906C30.5789 6.69022 30.504 6.66512 30.428 6.64384C30.3519 6.62254 30.2749 6.6051 30.1971 6.59157C30.1193 6.57806 30.041 6.56849 29.9622 6.56287C29.9065 6.55889 29.8506 6.55689 29.7948 6.55689V6.55676Z" fill="url(#paint1_radial_7_29)"/>
<path d="M17.5664 0.000362777C16.4853 -0.00138367 15.5205 0.00310658 14.6538 0.0153317L12.3302 0.0777047C11.6419 0.107644 11.0337 0.146686 10.4878 0.197209C10.2149 0.222407 9.95736 0.2506 9.71329 0.281662C9.48104 0.310987 9.24943 0.345135 9.01859 0.38408C8.79881 0.421504 8.59024 0.46192 8.39025 0.50583C8.19027 0.549741 7.99926 0.597146 7.81497 0.648043C7.6348 0.697812 7.45605 0.752556 7.2789 0.81221C7.10532 0.87084 6.93597 0.932964 6.76874 0.999329C6.43427 1.13206 6.10803 1.281 5.77207 1.44791C5.51356 1.5764 5.27473 1.70651 5.04785 1.84423C4.82097 1.98195 4.60605 2.12741 4.39561 2.28583C4.17889 2.44978 3.97 2.62387 3.76964 2.80752C3.56019 2.99863 3.34626 3.20883 3.12399 3.44373C2.84469 3.73725 2.602 4.01095 2.38658 4.27953C2.27887 4.41375 2.178 4.54648 2.08299 4.67996C1.98903 4.8115 1.89921 4.94596 1.81365 5.08314C1.72898 5.21911 1.64879 5.35758 1.57208 5.50004C1.49418 5.64495 1.42056 5.79213 1.35131 5.94139C1.2096 6.24627 1.07736 6.5746 0.945367 6.94111C0.847445 7.21206 0.759761 7.48661 0.682502 7.76418C0.60368 8.04785 0.533574 8.34462 0.471064 8.6656C0.408555 8.98657 0.354014 9.33174 0.306073 9.71346C0.254412 10.1319 0.213141 10.5515 0.182299 10.972C0.147433 11.4343 0.118544 11.9431 0.0948852 12.5093L0.0388507 14.3919L0.00871646 16.6869L0 19.4609L0.0255269 23.4948L0.105221 26.5511L0.16661 27.7449L0.243315 28.7341C0.267904 29.0008 0.298669 29.2668 0.335585 29.532C0.369206 29.7675 0.405317 29.9736 0.444168 30.152C0.522999 30.5147 0.616215 30.874 0.723594 31.2293C0.826408 31.5694 0.943985 31.9049 1.07599 32.2347C1.20574 32.5578 1.3477 32.8694 1.5021 33.1693C1.65651 33.4692 1.82337 33.7574 2.00268 34.0342C2.18199 34.311 2.37375 34.5765 2.57846 34.8306C2.78295 35.0847 3.00045 35.328 3.23009 35.5596C3.46008 35.7916 3.70264 36.0124 3.95829 36.2222C4.21695 36.4345 4.48583 36.6339 4.76394 36.8198C5.02207 36.9927 5.27747 37.151 5.53473 37.2963C5.79199 37.4416 6.05149 37.5735 6.31822 37.6934C6.58494 37.8133 6.85839 37.9212 7.14404 38.0182C7.4297 38.1153 7.7273 38.2016 8.04184 38.2782C8.35638 38.3548 8.68935 38.422 9.04175 38.4807C9.39415 38.5393 9.77082 38.5896 10.1733 38.6328C10.5757 38.6761 11.0051 38.7119 11.4664 38.7419C11.9278 38.7718 12.4209 38.7958 12.9507 38.815C13.7692 38.8447 15.0082 38.862 16.437 38.8686L21.0623 38.8593L25.4422 38.7978L27.1076 38.7509L28.1925 38.695C28.4254 38.676 28.6532 38.6535 28.8732 38.6272C29.0931 38.6009 29.31 38.5708 29.5212 38.5367C29.7324 38.5025 29.9388 38.4643 30.1417 38.4219C30.3422 38.3801 30.5416 38.3334 30.7399 38.2818C30.9361 38.2319 31.1296 38.1751 31.3211 38.1149C31.5126 38.0546 31.7022 37.9895 31.8906 37.9197C32.08 37.8494 32.2678 37.7745 32.4536 37.695C32.6408 37.6152 32.8277 37.5298 33.0152 37.4393C33.3033 37.3003 33.5351 37.1844 33.7387 37.0713C33.9302 36.966 34.1146 36.8483 34.2908 36.719C34.4647 36.5907 34.6375 36.4448 34.8367 36.2609C35.036 36.077 35.2617 35.8555 35.5413 35.5753C35.787 35.3293 35.9942 35.1155 36.1729 34.921C36.3515 34.7265 36.5021 34.5515 36.6341 34.3829C36.7599 34.2228 36.8771 34.0562 36.9852 33.8836C37.0907 33.7152 37.1878 33.5403 37.2868 33.3464C37.4357 33.0544 37.5682 32.7841 37.6869 32.5233C37.8021 32.2719 37.9074 32.0161 38.0024 31.7563C38.0961 31.4987 38.1772 31.2366 38.2454 30.9711C38.3156 30.6979 38.3761 30.4095 38.4284 30.0931C38.4807 29.7767 38.5249 29.4324 38.5633 29.048C38.6016 28.6635 38.6343 28.2386 38.6629 27.7612L38.7389 26.1586L38.8041 24.1655L38.8507 21.9451L38.8686 19.6233L38.827 15.0632L38.7714 13.0207L38.6954 11.2671L38.6008 9.89983C38.5664 9.51936 38.5293 9.21972 38.4899 9.01713C38.4464 8.79329 38.3977 8.57047 38.344 8.34887C38.2917 8.13323 38.2342 7.91889 38.1715 7.70605C38.1105 7.49868 38.0441 7.29291 37.9726 7.08893C37.9018 6.88747 37.8269 6.69024 37.7484 6.49726C37.67 6.30428 37.585 6.11579 37.4966 5.93129C37.4082 5.74679 37.3156 5.56678 37.2183 5.39089C37.1211 5.215 37.0197 5.04347 36.9138 4.87618C36.8078 4.7089 36.6975 4.54586 36.5825 4.38718C36.4683 4.22901 36.3491 4.07446 36.2252 3.92375C36.1019 3.77387 35.9739 3.62792 35.8414 3.48614C35.7091 3.34453 35.5723 3.20716 35.4313 3.07423C35.2902 2.94125 35.1449 2.81251 34.995 2.68801C34.8445 2.56311 34.6902 2.44292 34.5323 2.32762C34.3727 2.21115 34.2096 2.09958 34.0432 1.99306C33.8745 1.88502 33.7027 1.78202 33.5279 1.68418C33.3501 1.58471 33.1694 1.49036 32.9862 1.40126C32.6821 1.25318 32.401 1.12183 32.1249 1.00532C31.8536 0.889684 31.5769 0.786985 31.2958 0.697567C31.0132 0.608374 30.7189 0.531905 30.3952 0.465914C30.0714 0.399924 29.7184 0.344911 29.3188 0.298131C28.9192 0.251351 28.4731 0.213554 27.9628 0.182118C27.4525 0.150682 26.8786 0.12598 26.2232 0.106021L23.996 0.0561231L21.1772 0.0228162L17.5676 0.000610229L17.5664 0.000362777ZM19.441 3.43113L24.6464 3.46082L26.6101 3.49874C27.1509 3.51396 27.5636 3.5318 27.8055 3.55238C28.1205 3.57895 28.4206 3.61226 28.7077 3.65218C28.9831 3.69028 29.2572 3.73767 29.5295 3.79426C29.791 3.84915 30.0404 3.91153 30.2791 3.98188C30.5178 4.05224 30.7458 4.13108 30.9646 4.21827C31.1834 4.30547 31.3926 4.4014 31.5939 4.50644C31.7937 4.61068 31.9878 4.7254 32.1755 4.85011C32.3622 4.97424 32.5423 5.10796 32.7171 5.25204C32.892 5.39613 33.0614 5.55056 33.2269 5.71573C33.4016 5.89 33.5628 6.06751 33.7113 6.25064C33.8593 6.43263 33.9962 6.62338 34.1214 6.82185C34.2479 7.02315 34.3619 7.23208 34.4628 7.44745C34.5659 7.667 34.6585 7.89903 34.7417 8.14565C34.8249 8.39228 34.899 8.65437 34.9646 8.93442C35.0334 9.23133 35.0909 9.53073 35.1372 9.83197C35.187 10.1513 35.2296 10.4919 35.2657 10.8565C35.3018 11.2211 35.3317 11.61 35.3564 12.026C35.376 12.3597 35.3932 12.8001 35.4078 13.3201L35.4443 15.0934L35.4722 19.437L35.4404 23.7766L35.4023 25.5447L35.3499 26.8307C35.3135 27.4329 35.2752 27.9391 35.2294 28.3797C35.2063 28.6 35.1814 28.8039 35.1538 28.9951C35.1279 29.1758 35.0972 29.3557 35.0617 29.5347C35.0294 29.6981 34.9918 29.8603 34.9491 30.0212C34.9081 30.1748 34.8621 30.327 34.811 30.4774C34.7595 30.6286 34.7035 30.7782 34.643 30.926C34.5791 31.0821 34.5116 31.2367 34.4406 31.3897C34.3775 31.5263 34.3111 31.6592 34.2409 31.7885C34.1715 31.9166 34.0977 32.0422 34.0197 32.1653C33.9425 32.2871 33.8616 32.4055 33.7769 32.5202C33.6927 32.6344 33.6044 32.7456 33.5122 32.8535C33.4203 32.9609 33.3245 33.0649 33.2249 33.1653C33.1253 33.2658 33.022 33.3627 32.9149 33.4563C32.8078 33.5498 32.6967 33.6396 32.5818 33.7262C32.4668 33.8128 32.3479 33.8959 32.225 33.9754C32.1021 34.055 31.9754 34.1314 31.8445 34.2042C31.7136 34.2771 31.5786 34.3467 31.4398 34.4129C31.2985 34.4802 31.1553 34.5431 31.0103 34.6018C30.8604 34.6624 30.7089 34.7187 30.5558 34.7708C30.2445 34.8771 29.9161 34.9704 29.5705 35.0509C29.2102 35.1342 28.8466 35.2024 28.4807 35.2552C28.34 35.2758 28.0166 35.2951 27.5534 35.3131L25.7881 35.3623L20.7836 35.4274L15.5455 35.4356L13.4884 35.4136L12.1527 35.372L11.1677 35.3026C10.8619 35.2768 10.5775 35.2481 10.311 35.2155C10.0445 35.183 9.79635 35.1467 9.56287 35.1058C9.34162 35.0674 9.12171 35.0217 8.90353 34.9686C8.70459 34.9201 8.50769 34.8636 8.3133 34.7991C8.12589 34.7368 7.94671 34.6682 7.77238 34.5927C7.59805 34.5172 7.4287 34.4345 7.26097 34.3442C7.09324 34.2539 6.92725 34.1558 6.7594 34.0489C6.63276 33.9683 6.51035 33.8868 6.39256 33.8003C6.27476 33.7139 6.16095 33.6277 6.05137 33.5373C5.94179 33.447 5.83657 33.354 5.73508 33.2582C5.63427 33.1628 5.53692 33.0639 5.44321 32.9615C5.34981 32.8595 5.26053 32.7544 5.17486 32.6457C5.08886 32.5364 5.00691 32.4241 4.92918 32.3088C4.8503 32.1918 4.77566 32.072 4.70542 31.9496C4.63444 31.8261 4.56695 31.6983 4.50282 31.5666C4.43762 31.4323 4.37678 31.296 4.3204 31.1578C4.26312 31.0171 4.20882 30.8719 4.15777 30.7219C4.05566 30.4219 3.96601 30.1026 3.88806 29.762C3.81011 29.4215 3.74361 29.0597 3.68733 28.6742C3.63105 28.2888 3.58572 27.8801 3.54961 27.4457C3.52296 27.1258 3.50179 26.6274 3.4856 25.9987L3.45173 23.7626L3.46419 18.0623L3.56218 12.6154L3.6369 10.6963L3.67923 10.062C3.69393 9.8926 3.70912 9.7671 3.72468 9.69176C3.77599 9.44389 3.82766 9.21323 3.88108 8.9973C3.93099 8.79358 3.9865 8.59129 4.04757 8.39066C4.1056 8.20129 4.16674 8.0239 4.23211 7.85587C4.29515 7.69309 4.36541 7.53322 4.44268 7.37672C4.51814 7.22453 4.5992 7.07883 4.68724 6.93699C4.77527 6.79515 4.87028 6.65756 4.97388 6.52071C5.07749 6.38387 5.18906 6.24877 5.31047 6.11179C5.43187 5.97482 5.56299 5.83648 5.7052 5.6939C5.87093 5.52692 6.0435 5.3669 6.22246 5.21425C6.39144 5.07022 6.56766 4.93495 6.75043 4.80895C6.93012 4.6842 7.11441 4.57318 7.30629 4.47114C7.49818 4.36909 7.69767 4.27691 7.90748 4.19395C8.1173 4.11099 8.33771 4.03677 8.57118 3.96941C8.81647 3.90048 9.06447 3.84167 9.31458 3.79314C9.57757 3.7415 9.85687 3.69646 10.1551 3.65717C10.4533 3.61787 10.7706 3.58394 11.1098 3.5545C11.3464 3.53404 11.7541 3.51583 12.2909 3.50049L14.2446 3.46181L19.4419 3.43L19.441 3.43113Z" fill="url(#paint2_radial_7_29)"/>
<defs>
<radialGradient id="paint0_radial_7_29" cx="0" cy="0" r="1" gradientTransform="matrix(81.0142 -13.6268 8.27168 49.2614 6.19248 41.5745)" gradientUnits="userSpaceOnUse">
<stop offset="1" stop-color="white"/>
</radialGradient>
<radialGradient id="paint1_radial_7_29" cx="0" cy="0" r="1" gradientTransform="matrix(81.0142 -13.6268 8.27167 49.2614 6.1926 41.5745)" gradientUnits="userSpaceOnUse">
<stop offset="1" stop-color="white"/>
</radialGradient>
<radialGradient id="paint2_radial_7_29" cx="0" cy="0" r="1" gradientTransform="matrix(81.0142 -13.6268 8.27168 49.2614 6.19244 41.702)" gradientUnits="userSpaceOnUse">
<stop stop-color="white"/>
</radialGradient>
</defs>
</svg>
