<svg width="39" height="39" viewBox="0 0 39 39" fill="none" xmlns="http://www.w3.org/2000/svg">
<path d="M19.5 0C8.71406 0 0 8.73661 0 19.5C0 30.2859 8.73661 39 19.5 39C30.2859 39 39 30.2634 39 19.5C39 8.73661 30.2634 0 19.5 0ZM28.4456 28.1434C28.0965 28.7259 27.3506 28.8886 26.768 28.5395C22.1782 25.7437 16.4239 25.1148 9.6202 26.6522C8.96817 26.7924 8.31614 26.3963 8.17598 25.7443C8.03583 25.0922 8.43192 24.4402 9.08395 24.3C16.5159 22.5999 22.8985 23.3214 28.0245 26.467C28.1626 26.5492 28.2831 26.658 28.379 26.787C28.4748 26.916 28.5443 27.0626 28.5832 27.2186C28.6222 27.3745 28.6299 27.5366 28.606 27.6955C28.5821 27.8544 28.5269 28.0071 28.4438 28.1446L28.4456 28.1434ZM30.8222 22.8315C30.3798 23.5536 29.4474 23.7638 28.7259 23.3433C23.4841 20.1283 15.4928 19.1965 9.29602 21.06C8.48067 21.2928 7.64217 20.8504 7.40878 20.0582C7.176 19.2428 7.61841 18.4043 8.43375 18.171C15.5159 16.0278 24.3226 17.0527 30.3566 20.7571C31.0556 21.1764 31.2646 22.1081 30.8228 22.8308L30.8222 22.8315ZM31.0318 17.2861C24.7412 13.5586 14.3739 13.2094 8.36306 15.0266C7.40756 15.3294 6.38259 14.7706 6.07973 13.8151C5.77688 12.8596 6.33567 11.8347 7.29117 11.5318C14.1875 9.43556 25.6498 9.8542 32.8727 14.1412C33.735 14.653 34.0141 15.7718 33.5016 16.6335C33.0354 17.5189 31.8941 17.7986 31.0318 17.2855V17.2861Z" fill="white"/>
</svg>
