<svg width="50" height="37" viewBox="0 0 50 37" fill="none" xmlns="http://www.w3.org/2000/svg">
<path d="M48.6658 5.67517C48.3796 4.57874 47.8223 3.57922 47.0492 2.77592C46.2761 1.97261 45.3141 1.39349 44.2589 1.0961C40.3954 2.8887e-07 24.8448 0 24.8448 0C24.8448 0 9.29349 0.0323098 5.42917 1.12841C4.37396 1.4258 3.41201 2.00492 2.63891 2.80823C1.8658 3.61153 1.30846 4.61105 1.02224 5.70748C0 9.72275 0 18.1176 0 18.1176C0 18.1176 0 26.5124 1.05412 30.56C1.34033 31.6564 1.89768 32.6559 2.67078 33.4592C3.44388 34.2625 4.40583 34.8416 5.46104 35.139C9.32458 36.2351 24.8759 36.2351 24.8759 36.2351C24.8759 36.2351 40.4272 36.2351 44.2916 35.1398C45.3468 34.8425 46.3087 34.2633 47.0818 33.46C47.8549 32.6567 48.4123 31.6572 48.6985 30.5608C49.7518 26.5455 49.7518 18.1176 49.7518 18.1176C49.7518 18.1176 49.7207 9.72275 48.6658 5.67517Z" fill="white"/>
<path d="M19.8945 25.8815L32.7949 18.1175L19.8937 10.3535L19.8945 25.8815Z" fill="black"/>
</svg>
